<svg id="Layer_1" data-name="Layer 1" xmlns="http://www.w3.org/2000/svg" viewBox="0 0 191.48 65.38"><defs><style>.cls-1{fill:#f4a261;}.cls-2{fill:#fb8500;}.cls-3{fill:#e85d04;}.cls-4{fill:#fff;}</style></defs><title>logo_eagle</title><polygon class="cls-1" points="78.85 41.59 14.66 12.14 0 0 64.19 29.45 78.85 41.59"/><polygon class="cls-2" points="95.74 58.48 31.55 29.03 16.89 16.89 81.08 46.34 95.74 58.48"/><polygon class="cls-1" points="112.63 41.59 176.82 12.14 191.48 0 127.29 29.45 112.63 41.59"/><polygon class="cls-2" points="95.74 58.48 159.94 29.03 174.59 16.89 110.4 46.34 95.74 58.48"/><polygon class="cls-3" points="72.61 51.59 81.17 58.68 92.31 63.79 95.77 62.21 72.61 51.59"/><polygon class="cls-3" points="110.12 58.79 118.68 51.7 95.77 62.21 99.22 63.79 110.12 58.79"/><polygon class="cls-3" points="95.77 62.21 92.31 63.79 95.77 65.38 99.22 63.79 95.77 62.21"/><polygon class="cls-4" points="108.94 41.55 97.93 43.17 102.63 47.87 108.94 41.55"/><polygon class="cls-4" points="82.52 41.53 88.83 47.85 93.53 43.15 82.52 41.53"/><polygon class="cls-4" points="100.95 49.91 96.43 45.39 95.74 45.29 95.05 45.39 90.53 49.91 95.74 55.13 100.95 49.91"/></svg>