<svg id="Layer_1" data-name="Layer 1" xmlns="http://www.w3.org/2000/svg" viewBox="0 0 206.63 100.7"><defs><style>.cls-1{font-size:36px;font-family:SukhumvitSet-Bold, Sukhumvit Set;font-weight:700;}.cls-2,.cls-3,.cls-4,.cls-5{fill:#f7931e;}.cls-3{letter-spacing:-0.01em;}.cls-4{letter-spacing:0em;}.cls-5{letter-spacing:-0.02em;}.cls-6{fill:red;}.cls-7{fill:#fcee21;}.cls-8{fill:#009245;}.cls-9{fill:#666;}</style></defs><title>logo v1</title><text class="cls-1" transform="translate(0 83.63)">The<tspan x="57.78" y="0"> </tspan><tspan class="cls-2" x="66.06" y="0">S </tspan><tspan class="cls-3" x="93.74" y="0">r</tspan><tspan class="cls-4" x="107.31" y="0">eet </tspan><tspan class="cls-5" x="165.56" y="0">F</tspan><tspan class="cls-2" x="184.03" y="0">X</tspan></text><rect class="cls-2" x="86.63" y="25" width="5" height="59"/><rect class="cls-2" x="246" y="107" width="5" height="59" transform="translate(-47.37 295) rotate(-90)"/><rect class="cls-6" x="164.63" y="13" width="9" height="26"/><rect class="cls-6" x="168.63" y="8" width="1" height="5"/><rect class="cls-6" x="168.63" y="39" width="1" height="5"/><rect class="cls-7" x="179.63" y="24" width="9" height="26"/><rect class="cls-7" x="183.63" y="19" width="1" height="5"/><rect class="cls-7" x="183.63" y="50" width="1" height="5"/><rect class="cls-8" x="194.63" y="5" width="9" height="26"/><rect class="cls-8" x="198.63" width="1" height="5"/><rect class="cls-8" x="198.63" y="31" width="1" height="5"/><rect x="6.63" y="88" width="200" height="4"/><rect class="cls-9" x="6.63" y="88" width="200" height="2"/></svg>