<svg id="Layer_1" data-name="Layer 1" xmlns="http://www.w3.org/2000/svg" viewBox="0 0 191.48 84.65"><defs><style>.cls-1{fill:#f4a261;}.cls-2{fill:#fb8500;}.cls-3{fill:#e85d04;}.cls-4{fill:#023047;}.cls-5{stroke:#000;stroke-miterlimit:10;stroke-width:0.1px;}</style></defs><title>logo_eagletext</title><polygon class="cls-1" points="78.85 41.59 14.66 12.14 0 0 64.19 29.45 78.85 41.59"/><polygon class="cls-2" points="95.74 58.48 31.55 29.03 16.89 16.89 81.08 46.34 95.74 58.48"/><polygon class="cls-1" points="112.63 41.59 176.82 12.14 191.48 0 127.29 29.45 112.63 41.59"/><polygon class="cls-2" points="95.74 58.48 159.94 29.03 174.59 16.89 110.4 46.34 95.74 58.48"/><polygon class="cls-3" points="72.61 51.59 81.17 58.68 92.31 63.79 95.77 62.21 72.61 51.59"/><polygon class="cls-3" points="110.12 58.79 118.68 51.7 95.77 62.21 99.22 63.79 110.12 58.79"/><polygon class="cls-3" points="95.77 62.21 92.31 63.79 95.77 65.38 99.22 63.79 95.77 62.21"/><polygon class="cls-4" points="108.94 41.55 97.93 43.17 102.63 47.87 108.94 41.55"/><polygon class="cls-4" points="82.52 41.53 88.83 47.85 93.53 43.15 82.52 41.53"/><polygon class="cls-4" points="100.95 49.91 96.43 45.39 95.74 45.29 95.05 45.39 90.53 49.91 95.74 55.13 100.95 49.91"/><path class="cls-5" d="M605.33,414.26H601v-1.55H611.5v1.55h-4.32v12.6h-1.85Z" transform="translate(-563.26 -342.47)"/><path class="cls-5" d="M612.87,412h1.85v6.34h0a3.37,3.37,0,0,1,1.32-1.3,3.78,3.78,0,0,1,1.89-.53c1.36,0,3.55.84,3.55,4.35v6.05h-1.85V421c0-1.64-.61-3-2.35-3a2.66,2.66,0,0,0-2.48,1.84,2.4,2.4,0,0,0-.12.89v6.13h-1.85Z" transform="translate(-563.26 -342.47)"/><path class="cls-5" d="M625.55,422.11a3.26,3.26,0,0,0,3.49,3.53,6.74,6.74,0,0,0,2.81-.52l.32,1.32a8.36,8.36,0,0,1-3.38.63c-3.13,0-5-2.06-5-5.13s1.8-5.48,4.76-5.48c3.32,0,4.2,2.92,4.2,4.79a7.27,7.27,0,0,1-.06.86Zm5.42-1.32c0-1.18-.48-3-2.56-3-1.87,0-2.69,1.72-2.84,3Z" transform="translate(-563.26 -342.47)"/><path class="cls-5" d="M639.31,424.63a6.4,6.4,0,0,0,3.27.93c1.87,0,3-1,3-2.42s-.75-2.08-2.66-2.81c-2.31-.82-3.74-2-3.74-4,0-2.21,1.83-3.85,4.58-3.85a6.37,6.37,0,0,1,3.12.7l-.5,1.49a5.67,5.67,0,0,0-2.69-.67c-1.93,0-2.66,1.15-2.66,2.12,0,1.32.86,2,2.81,2.73,2.39.92,3.61,2.08,3.61,4.15s-1.62,4.08-4.95,4.08a7.28,7.28,0,0,1-3.62-.91Z" transform="translate(-563.26 -342.47)"/><path class="cls-5" d="M652,413.78v2.92h2.65v1.4H652v5.48c0,1.26.36,2,1.39,2a4.21,4.21,0,0,0,1.07-.13l.08,1.39a4.65,4.65,0,0,1-1.64.25,2.57,2.57,0,0,1-2-.78,3.8,3.8,0,0,1-.71-2.65V418.1h-1.58v-1.4h1.58v-2.44Z" transform="translate(-563.26 -342.47)"/><path class="cls-5" d="M656.74,419.87c0-1.2,0-2.23-.09-3.17h1.62l.06,2h.09a3.05,3.05,0,0,1,2.81-2.23,2,2,0,0,1,.52.07v1.74a2.77,2.77,0,0,0-.62-.06,2.58,2.58,0,0,0-2.48,2.37,5.41,5.41,0,0,0-.09.86v5.42h-1.82Z" transform="translate(-563.26 -342.47)"/><path class="cls-5" d="M664.42,422.11a3.26,3.26,0,0,0,3.49,3.53,6.74,6.74,0,0,0,2.81-.52l.32,1.32a8.32,8.32,0,0,1-3.38.63c-3.13,0-5-2.06-5-5.13s1.8-5.48,4.76-5.48c3.32,0,4.2,2.92,4.2,4.79a7.27,7.27,0,0,1-.06.86Zm5.42-1.32c0-1.18-.48-3-2.56-3-1.87,0-2.69,1.72-2.84,3Z" transform="translate(-563.26 -342.47)"/><path class="cls-5" d="M674.94,422.11a3.26,3.26,0,0,0,3.49,3.53,6.74,6.74,0,0,0,2.81-.52l.32,1.32a8.32,8.32,0,0,1-3.38.63c-3.13,0-5-2.06-5-5.13s1.81-5.48,4.77-5.48c3.31,0,4.2,2.92,4.2,4.79a6.84,6.84,0,0,1-.07.86Zm5.42-1.32c0-1.18-.48-3-2.56-3-1.87,0-2.69,1.72-2.84,3Z" transform="translate(-563.26 -342.47)"/><path class="cls-5" d="M686.66,413.78v2.92h2.65v1.4h-2.65v5.48c0,1.26.36,2,1.39,2a4.21,4.21,0,0,0,1.07-.13l.08,1.39a4.69,4.69,0,0,1-1.64.25,2.57,2.57,0,0,1-2-.78,3.75,3.75,0,0,1-.71-2.65V418.1h-1.58v-1.4h1.58v-2.44Z" transform="translate(-563.26 -342.47)"/><path class="cls-5" d="M695.9,412.71h7.62v1.53h-5.79v4.7h5.35v1.51h-5.35v6.41H695.9Z" transform="translate(-563.26 -342.47)"/><path class="cls-5" d="M713.88,426.86l-1.81-3.13c-.74-1.2-1.2-2-1.64-2.79h0c-.4.82-.8,1.57-1.53,2.81l-1.7,3.11h-2.1l4.32-7.16-4.16-7h2.13l1.86,3.31c.53.93.93,1.64,1.31,2.4h.06c.4-.84.75-1.49,1.28-2.4l1.93-3.31h2.1l-4.3,6.88,4.41,7.27Z" transform="translate(-563.26 -342.47)"/></svg>